<svg width="24" height="24" viewBox="0 0 22 22" fill="none" xmlns="http://www.w3.org/2000/svg">
<path d="M10.3083 6.90319C8.26025 9.41151 8.6334 13.1052 11.1417 15.1532C11.5139 15.4571 11.9123 15.7077 12.3274 15.9059C10.8007 16.3177 9.10451 16.013 7.78616 14.9366C5.61228 13.1616 5.28889 9.96045 7.06384 7.78657C8.14026 6.46822 9.74122 5.83045 11.3195 5.92853C10.9523 6.20578 10.6122 6.53098 10.3083 6.90319Z" fill="#DCE8FF"/>
<path d="M6.05563 17.056C2.7112 14.3253 2.21367 9.40047 4.94437 6.05604C7.67508 2.71161 12.5999 2.21408 15.9444 4.94479C19.2888 7.67549 19.7863 12.6004 17.0556 15.9448C14.3249 19.2892 9.40006 19.7867 6.05563 17.056Z" stroke="#DCE8FF" stroke-width="1.15556" stroke-linecap="round" stroke-linejoin="round"/>
<path d="M10.3083 6.90319C8.26025 9.41151 8.6334 13.1052 11.1417 15.1532C11.5139 15.4571 11.9123 15.7077 12.3274 15.9059C10.8007 16.3177 9.10451 16.013 7.78616 14.9366C5.61228 13.1616 5.28889 9.96045 7.06384 7.78657C8.14026 6.46822 9.74122 5.83045 11.3195 5.92853C10.9523 6.20578 10.6122 6.53098 10.3083 6.90319Z" stroke="#DCE8FF" stroke-width="1.15556" stroke-linecap="round" stroke-linejoin="round"/>
</svg>
