<svg width="24" height="24" viewBox="0 0 24 24" fill="none" xmlns="http://www.w3.org/2000/svg">
<path d="M12 19C12.2652 19 12.5196 19.1054 12.7071 19.2929C12.8946 19.4804 13 19.7348 13 20V21C13 21.2652 12.8946 21.5196 12.7071 21.7071C12.5196 21.8946 12.2652 22 12 22C11.7348 22 11.4804 21.8946 11.2929 21.7071C11.1053 21.5196 11 21.2652 11 21V20C11 19.7348 11.1053 19.4804 11.2929 19.2929C11.4804 19.1054 11.7348 19 12 19ZM18.364 16.95L19.071 17.657C19.2531 17.8456 19.3539 18.0982 19.3517 18.3604C19.3494 18.6226 19.2442 18.8734 19.0588 19.0588C18.8734 19.2442 18.6226 19.3494 18.3604 19.3517C18.0982 19.354 17.8456 19.2532 17.657 19.071L16.95 18.364C16.7678 18.1754 16.667 17.9228 16.6693 17.6606C16.6716 17.3984 16.7768 17.1476 16.9622 16.9622C17.1476 16.7768 17.3984 16.6716 17.6606 16.6693C17.9228 16.667 18.1754 16.7678 18.364 16.95ZM5.63599 16.95C5.81595 16.7707 6.05743 16.6665 6.31137 16.6588C6.56532 16.651 6.8127 16.7402 7.00327 16.9082C7.19384 17.0763 7.3133 17.3106 7.33739 17.5635C7.36148 17.8164 7.2884 18.069 7.13299 18.27L7.04999 18.364L6.34299 19.071C6.16303 19.2503 5.92156 19.3545 5.66761 19.3622C5.41366 19.37 5.16628 19.2808 4.97571 19.1128C4.78515 18.9447 4.66569 18.7104 4.64159 18.4575C4.6175 18.2046 4.69058 17.952 4.84599 17.751L4.92899 17.657L5.63599 16.95ZM12 6C13.5913 6 15.1174 6.63214 16.2426 7.75736C17.3679 8.88258 18 10.4087 18 12C18 13.5913 17.3679 15.1174 16.2426 16.2426C15.1174 17.3679 13.5913 18 12 18C10.4087 18 8.88257 17.3679 7.75735 16.2426C6.63213 15.1174 5.99999 13.5913 5.99999 12C5.99999 10.4087 6.63213 8.88258 7.75735 7.75736C8.88257 6.63214 10.4087 6 12 6ZM3.99999 11C4.25487 11.0003 4.50002 11.0979 4.68536 11.2728C4.8707 11.4478 4.98223 11.687 4.99716 11.9414C5.0121 12.1958 4.92932 12.4464 4.76573 12.6418C4.60214 12.8373 4.37009 12.9629 4.11699 12.993L3.99999 13H2.99999C2.74511 12.9997 2.49996 12.9021 2.31462 12.7272C2.12929 12.5522 2.01776 12.313 2.00282 12.0586C1.98788 11.8042 2.07067 11.5536 2.23426 11.3582C2.39785 11.1627 2.62989 11.0371 2.88299 11.007L2.99999 11H3.99999ZM21 11C21.2652 11 21.5196 11.1054 21.7071 11.2929C21.8946 11.4804 22 11.7348 22 12C22 12.2652 21.8946 12.5196 21.7071 12.7071C21.5196 12.8946 21.2652 13 21 13H20C19.7348 13 19.4804 12.8946 19.2929 12.7071C19.1053 12.5196 19 12.2652 19 12C19 11.7348 19.1053 11.4804 19.2929 11.2929C19.4804 11.1054 19.7348 11 20 11H21ZM4.92899 4.929C5.10118 4.75682 5.33028 4.65339 5.57331 4.63811C5.81634 4.62283 6.05659 4.69675 6.24899 4.846L6.34299 4.929L7.04999 5.636C7.22934 5.81596 7.33346 6.05743 7.34122 6.31138C7.34897 6.56533 7.25978 6.81271 7.09174 7.00328C6.92371 7.19384 6.68944 7.31331 6.43652 7.3374C6.18359 7.36149 5.93098 7.28841 5.72999 7.133L5.63599 7.05L4.92899 6.343C4.74152 6.15547 4.6362 5.90116 4.6362 5.636C4.6362 5.37084 4.74152 5.11653 4.92899 4.929ZM19.071 4.929C19.2585 5.11653 19.3638 5.37084 19.3638 5.636C19.3638 5.90116 19.2585 6.15547 19.071 6.343L18.364 7.05C18.2717 7.14551 18.1614 7.22169 18.0394 7.2741C17.9174 7.32651 17.7862 7.3541 17.6534 7.35525C17.5206 7.3564 17.3889 7.3311 17.266 7.28082C17.1431 7.23054 17.0315 7.15629 16.9376 7.0624C16.8437 6.9685 16.7695 6.85685 16.7192 6.73395C16.6689 6.61106 16.6436 6.47938 16.6447 6.3466C16.6459 6.21382 16.6735 6.0826 16.7259 5.9606C16.7783 5.83859 16.8545 5.72825 16.95 5.636L17.657 4.929C17.8445 4.74153 18.0988 4.63621 18.364 4.63621C18.6292 4.63621 18.8835 4.74153 19.071 4.929ZM12 2C12.2652 2 12.5196 2.10536 12.7071 2.29289C12.8946 2.48043 13 2.73478 13 3V4C13 4.26522 12.8946 4.51957 12.7071 4.70711C12.5196 4.89464 12.2652 5 12 5C11.7348 5 11.4804 4.89464 11.2929 4.70711C11.1053 4.51957 11 4.26522 11 4V3C11 2.73478 11.1053 2.48043 11.2929 2.29289C11.4804 2.10536 11.7348 2 12 2Z" fill="black"/>
</svg>
